<svg xmlns="http://www.w3.org/2000/svg" viewBox="0 0 512 512">
  <defs>
    <filter id="shadow" x="-20%" y="-20%" width="140%" height="140%">
      <feDropShadow dx="0" dy="8" stdDeviation="10" flood-color="#000000" flood-opacity="0.12"/>
    </filter>
  </defs>

  <!-- Livro branco ao fundo -->
  <g filter="url(#shadow)">
    <path d="M88 86
             Q88 62 112 62
             H246
             Q273 62 286 80
             Q299 62 326 62
             H400
             Q424 62 424 86
             V426
             Q424 450 400 450
             H326
             Q303 450 286 436
             Q269 450 246 450
             H112
             Q88 450 88 426
             Z"
          fill="#ffffff"/>
    <path d="M286 90 V430" stroke="#E8E8EF" stroke-width="10" stroke-linecap="round"/>
    <path d="M122 112 H240" stroke="#F1F1F6" stroke-width="8" stroke-linecap="round"/>
    <path d="M332 112 H390" stroke="#F1F1F6" stroke-width="8" stroke-linecap="round"/>
  </g>

  <!-- Ícone roxo -->
  <g transform="translate(30 18) scale(0.88)">
    <path d="M 252 479.5 L 225 477.5 L 203 466.5 L 186.5 448 L 178.5 427 L 182.5 412 L 190.5 399 L 213 382.5 L 234 378.5 L 249 384.5 L 268 386.5 L 273.5 381 L 273.5 377 L 269 372.5 L 251 370.5 L 232 361.5 L 213.5 340 L 208.5 324 L 215.5 296 L 213.5 280 L 210 277.5 L 201.5 280 L 200.5 301 L 193.5 316 L 182 326.5 L 167 331.5 L 163.5 340 L 168 344.5 L 174 344.5 L 196 333.5 L 204.5 352 L 216.5 367 L 191 379.5 L 178.5 392 L 166 414.5 L 148 414.5 L 123 405.5 L 100.5 383 L 91.5 357 L 92.5 335 L 99.5 316 L 83 309.5 L 64.5 293 L 55.5 277 L 51.5 261 L 51.5 244 L 57.5 224 L 64.5 213 L 83 196.5 L 91 193.5 L 107 203.5 L 124 208.5 L 136 209.5 L 142.5 204 L 140 196.5 L 114 191.5 L 92.5 177 L 92.5 151 L 103.5 126 L 119 110.5 L 137 101.5 L 158 98.5 L 178 102.5 L 178.5 78 L 189.5 53 L 208 35.5 L 232 26.5 L 259 27.5 L 285 40.5 L 299.5 57 L 306.5 72 L 309.5 88 L 309.5 233 L 293 233.5 L 281 228.5 L 268.5 217 L 263.5 208 L 278.5 177 L 279.5 167 L 275 161.5 L 266.5 164 L 259.5 188 L 248 200.5 L 233 207.5 L 218 208.5 L 212.5 214 L 213.5 219 L 218 222.5 L 235 221.5 L 251 214.5 L 259.5 228 L 274 240.5 L 292 247.5 L 309.5 249 L 308.5 426 L 299.5 449 L 287 463.5 L 272 473.5 L 252 479.5 Z M 356 145.5 L 324 145.5 L 323.5 130 L 353 129.5 L 361.5 123 L 363.5 107 L 352 100.5 L 345.5 93 L 341.5 82 L 342.5 68 L 355 51.5 L 368 46.5 L 381 47.5 L 392 53.5 L 398.5 61 L 402.5 72 L 401.5 86 L 391 101.5 L 379.5 107 L 378.5 125 L 372.5 136 L 356 145.5 Z M 414 215.5 L 324 215.5 L 323.5 200 L 411 199.5 L 415 197.5 L 420.5 189 L 420.5 177 L 410 171.5 L 401.5 161 L 398.5 151 L 399.5 139 L 403.5 130 L 414 120.5 L 427 116.5 L 437 117.5 L 449 123.5 L 455.5 131 L 459.5 141 L 459.5 153 L 454.5 165 L 447 172.5 L 436.5 177 L 435.5 196 L 430.5 205 L 414 215.5 Z M 432 306.5 L 424 306.5 L 411 301.5 L 401.5 291 L 399 283.5 L 324 283.5 L 323.5 268 L 399 267.5 L 402.5 259 L 414 248.5 L 423 245.5 L 438 246.5 L 446 250.5 L 455.5 261 L 458.5 269 L 458.5 283 L 447 300.5 L 432 306.5 Z M 429 435.5 L 411 429.5 L 402.5 420 L 398.5 408 L 401.5 391 L 410 380.5 L 420.5 375 L 420.5 363 L 414 353.5 L 407 351.5 L 324 351.5 L 323.5 336 L 408 335.5 L 424 340.5 L 435.5 356 L 436.5 375 L 447 379.5 L 454.5 387 L 459.5 398 L 458.5 415 L 452.5 425 L 440 433.5 L 429 435.5 Z M 360 485.5 L 340 478.5 L 330.5 465 L 330.5 444 L 342 429.5 L 350.5 425 L 350.5 412 L 342 402.5 L 324 402.5 L 324 386.5 L 345 386.5 L 354 390.5 L 364.5 403 L 366.5 425 L 377 429.5 L 388.5 444 L 389.5 462 L 383.5 474 L 373 482.5 L 360 485.5 Z" fill="#7C3AED" fill-rule="evenodd"/>
  </g>
</svg>